<?xml version="1.0" encoding="UTF-8"?>
<svg id="Layer_1" data-name="Layer 1" xmlns="http://www.w3.org/2000/svg" version="1.1" viewBox="0 0 720 720">
  <defs>
    <style>
      .cls-1 {
        fill: none;
        stroke: #000;
        stroke-width: 30px;
      }
    </style>
  </defs>
  <path class="cls-1" d="M229.3,228.7L54.6,403.4l125.1,140,66.8-19c4.9-19.8,12.7-38.8,28.7-54.9,22.8-22.8,50-26.9,68.7-8.2l.7.7c18.7,18.7,16.1,45.2-7.8,69.1-22,22-52.6,31.7-91.8,35.1l7.1,90c52.6-1.9,101.2-18.3,147.5-64.6M616.4,374.6c74.7-74.7,59.4-183.3-14.6-257.2l-.7-.7c-73.9-73.9-181.4-88.8-255.7-14.6-73.4,73.4-59.7,180.7,12,254.6-41.7-10.1-84,7.8-116.2,39.9-17.5,17.5-26.1,33.6-32.5,51.1l-37.3-41.8"/>
</svg>